<?xml version="1.0" encoding="UTF-8" standalone="no"?>
<!--
************* Copyright (c) 2017 Pareto Softare, LLC DBA Simplemaps.com *******************		
************* Free for Commercial Use, full terms at  http://simplemaps.com/resources/svg-license ************
************* Attribution is appreciated! http://simplemaps.com ***************************
-->

<svg
   enable_background="new 0 0 1000 589"
   height="221.30391"
   pretty_print="False"
   style="fill:none;stroke:#000000;stroke-linejoin:round"
   version="1.1"
   viewBox="0 0 135.40302 221.30391"
   width="135.40302"
   id="svg"
   inkscape:version="0.48.4 r9939"
   sodipodi:docname="CA.svg"
   xmlns:inkscape="http://www.inkscape.org/namespaces/inkscape"
   xmlns:sodipodi="http://sodipodi.sourceforge.net/DTD/sodipodi-0.dtd"
   xmlns="http://www.w3.org/2000/svg"
   xmlns:svg="http://www.w3.org/2000/svg"
   xmlns:rdf="http://www.w3.org/1999/02/22-rdf-syntax-ns#"
   xmlns:cc="http://creativecommons.org/ns#"
   xmlns:dc="http://purl.org/dc/elements/1.1/">
  <sodipodi:namedview
     pagecolor="#ffffff"
     bordercolor="#666666"
     borderopacity="1"
     objecttolerance="10"
     gridtolerance="10"
     guidetolerance="10"
     inkscape:pageopacity="0"
     inkscape:pageshadow="2"
     inkscape:window-width="1920"
     inkscape:window-height="1137"
     id="namedview69"
     showgrid="false"
     inkscape:zoom="0.80893016"
     inkscape:cx="817.66365"
     inkscape:cy="409.3738"
     inkscape:window-x="1192"
     inkscape:window-y="118"
     inkscape:window-maximized="1"
     inkscape:current-layer="svg2"
     inkscape:showpageshadow="2"
     inkscape:pagecheckerboard="0"
     inkscape:deskcolor="#d1d1d1">
    <inkscape:page
       x="0"
       y="0"
       width="135.40302"
       height="221.30391"
       id="page2"
       margin="0"
       bleed="0" />
  </sodipodi:namedview>
  <defs
     id="defs4">
    <style
       type="text/css"
       id="style6">path { fill-rule: evenodd; }</style>
    <clipPath
       clipPathUnits="userSpaceOnUse"
       id="clipPath1">
      <rect
         style="fill:none;stroke-width:0;stroke-linecap:round;stroke-linejoin:bevel"
         id="rect2"
         width="178.01289"
         height="244.76773"
         x="127.32867"
         y="153.28888"
         rx="10" />
    </clipPath>
  </defs>
  <metadata
     id="metadata8">
    <views
       id="views10">
      <view
         h="589.235294118"
         padding="0"
         w="1000"
         id="view12">
        <proj
           id="laea-usa"
           lat0="45"
           lon0="-100" />
        <bbox
           h="321.97"
           w="589.33"
           x="690.09"
           y="918.69"
           id="bbox15" />
      </view>
    </views>
    <rdf:RDF>
      <cc:Work
         rdf:about="">
        <dc:format>image/svg+xml</dc:format>
        <dc:type
           rdf:resource="http://purl.org/dc/dcmitype/StillImage" />
        <dc:title />
      </cc:Work>
    </rdf:RDF>
  </metadata>
  <path
     inkscape:connector-curvature="0"
     id="CA"
     data-name="California"
     data-id="CA"
     d="m 206.01387,363.77489 0.38825,2.13539 v 0.38825 z m -14.26828,-8.34743 0.67944,1.45595 0.38825,-0.0971 -1.06769,-1.35888 z m 16.98604,-0.29119 0.29119,2.52364 1.74714,1.26182 z m -11.74463,-13.78296 -1.0677,-0.29119 0.87357,0.38825 0.19413,-0.0971 z m -10.77401,-2.9119 -2.6207,1.55301 0.67944,0.67945 z m -5.04728,-1.8442 -0.19413,0.77651 0.87357,0.19413 z m 8.54155,1.94127 4.27078,2.42658 0.77651,-0.67945 z m -33.09852,-85.51261 -0.0971,0.0971 z m 10.38575,0.48531 -0.0971,-0.29119 v 0.38826 l 0.0971,-0.0971 z m 56.00542,-73.6709 -3.78546,-0.97064 -41.54301,-11.45344 -15.43304,-4.65903 v 0.38825 l -0.87357,9.60925 -4.07665,11.35638 -6.79442,8.44449 -0.19412,4.27078 3.30014,5.92085 1.65008,7.76505 -2.32952,6.3091 0.38825,6.30911 -1.16475,2.6207 3.97958,8.63862 2.52364,3.30015 -0.19412,9.41512 6.01791,5.72672 3.49427,-5.82378 3.78547,3.00895 1.45594,-1.35888 -5.24141,0.97063 -0.0971,4.95022 1.0677,6.21204 -2.9119,-2.81483 -1.65007,-3.78546 -0.48532,5.2414 1.35889,10.38576 5.43553,6.69735 -3.59133,4.65903 0.58237,5.92085 3.88253,6.01792 6.79442,18.63612 2.13539,1.16475 -0.67945,12.9094 1.0677,1.55301 14.55947,5.24141 4.4649,4.75609 1.55301,3.10602 4.27078,2.42658 4.65903,0.87357 1.94126,5.33847 3.88252,1.8442 5.82379,6.89148 5.43554,9.02687 -0.38826,8.34743 3.00896,3.97958 39.69882,3.88253 v 0 l 3.49427,-0.19413 1.55301,-4.27077 -3.00896,-2.23246 0.0971,-7.0856 1.74713,-0.38826 3.49427,-8.54155 2.13539,-3.97959 5.43554,-3.20308 -3.00896,-4.07665 -3.39721,-9.12394 0.19413,-2.42657 v -0.0971 l -2.52364,-3.39721 -7.76505,-10.38575 -15.04479,-21.15976 -20.96563,-30.08957 -11.8417,-16.40366 -11.45345,-16.50074 13.20058,-56.00542 0.87357,-3.68839 z"
     style="fill:#f9f9f9;stroke-width:0.970631"
     clip-path="url(#clipPath1)"
     inkscape:export-filename="CA.png"
     inkscape:export-xdpi="106.28"
     inkscape:export-ydpi="106.28"
     transform="translate(-149.81432,-162.27187)" />
</svg>
