<?xml version="1.0" encoding="UTF-8" standalone="no"?>
<!--
************* Copyright (c) 2017 Pareto Softare, LLC DBA Simplemaps.com *******************		
************* Free for Commercial Use, full terms at  http://simplemaps.com/resources/svg-license ************
************* Attribution is appreciated! http://simplemaps.com ***************************
-->

<svg
   enable_background="new 0 0 1000 589"
   height="99.514153"
   pretty_print="False"
   style="fill:none;stroke:#000000;stroke-linejoin:round"
   version="1.1"
   viewBox="0 0 149.58032 99.514153"
   width="149.58032"
   id="svg"
   inkscape:version="0.48.4 r9939"
   sodipodi:docname="NY.svg"
   xmlns:inkscape="http://www.inkscape.org/namespaces/inkscape"
   xmlns:sodipodi="http://sodipodi.sourceforge.net/DTD/sodipodi-0.dtd"
   xmlns="http://www.w3.org/2000/svg"
   xmlns:svg="http://www.w3.org/2000/svg"
   xmlns:rdf="http://www.w3.org/1999/02/22-rdf-syntax-ns#"
   xmlns:cc="http://creativecommons.org/ns#"
   xmlns:dc="http://purl.org/dc/elements/1.1/">
  <sodipodi:namedview
     pagecolor="#ffffff"
     bordercolor="#666666"
     borderopacity="1"
     objecttolerance="10"
     gridtolerance="10"
     guidetolerance="10"
     inkscape:pageopacity="0"
     inkscape:pageshadow="2"
     inkscape:window-width="1920"
     inkscape:window-height="1137"
     id="namedview69"
     showgrid="false"
     inkscape:zoom="0.80893016"
     inkscape:cx="817.66365"
     inkscape:cy="409.3738"
     inkscape:window-x="1192"
     inkscape:window-y="118"
     inkscape:window-maximized="1"
     inkscape:current-layer="svg2"
     inkscape:showpageshadow="2"
     inkscape:pagecheckerboard="0"
     inkscape:deskcolor="#d1d1d1">
    <inkscape:page
       x="0"
       y="0"
       width="149.58032"
       height="99.514153"
       id="page2"
       margin="0"
       bleed="0" />
  </sodipodi:namedview>
  <defs
     id="defs4">
    <style
       type="text/css"
       id="style6">path { fill-rule: evenodd; }</style>
  </defs>
  <metadata
     id="metadata8">
    <views
       id="views10">
      <view
         h="589.235294118"
         padding="0"
         w="1000"
         id="view12">
        <proj
           id="laea-usa"
           lat0="45"
           lon0="-100" />
        <bbox
           h="321.97"
           w="589.33"
           x="690.09"
           y="918.69"
           id="bbox15" />
      </view>
    </views>
    <rdf:RDF>
      <cc:Work
         rdf:about="">
        <dc:format>image/svg+xml</dc:format>
        <dc:type
           rdf:resource="http://purl.org/dc/dcmitype/StillImage" />
        <dc:title />
      </cc:Work>
    </rdf:RDF>
  </metadata>
  <path
     inkscape:connector-curvature="0"
     id="NY"
     data-name="New York"
     data-id="NY"
     d="m 102.86839,93.702248 -1.45595,2.03832 -0.38825,0.58238 z m 13.39471,-4.75609 4.85316,-4.27078 v -0.19413 z m -12.71527,3.00895 v -3.30014 l -0.29119,1.74713 z m 22.51864,-15.5301 -1.16475,-0.29119 -0.19413,0.87357 z m 2.62071,-1.74713 -0.0971,0.97063 0.19412,-0.58238 -0.0971,-0.38825 z m -2.71777,0.0971 -6.50323,6.01791 -9.9975,4.27078 -2.6207,2.23245 -0.19413,2.13539 -2.71777,2.23245 0.38826,2.9119 4.17371,-1.65008 6.11498,-4.95022 6.79441,-3.59133 10.2887,-9.70631 -7.27974,5.53259 -2.32951,0.97064 z m 3.00896,-4.07665 0.38825,-0.58238 -1.16476,1.35888 z m -109.098952,-3.59134 -1.55301,-0.19412 1.16476,1.55301 z m 32.22496,-29.70131 0.19412,-1.0677 -0.7765,0.97064 0.58238,0.0971 z m 0.48531,-6.98855 -0.38825,0.19413 -0.48532,1.06769 z m -41.0577,55.13186 0.67944,2.91189 5.14435,1.26182 29.50719,-8.05624 29.70131,-8.92981 5.43554,4.17372 1.06769,2.42658 6.3091,2.71776 0.19413,0.38826 1.65007,0.38825 1.74714,0.48531 10.191632,2.52365 -0.19413,-0.48532 0.87357,3.97959 1.94126,-0.48532 1.0677,-4.36784 v -0.0971 l -1.74714,-1.65007 2.52364,-3.10602 -1.16476,-1.45595 -3.68839,-14.26828 -0.19413,-0.97063 -0.48532,-0.29119 -0.29119,-4.27078 -0.29119,-4.65903 -0.29118,-5.04728 v -0.29119 l -0.19413,0.0971 -4.853162,-15.91835 -5.14434,-8.05624 -1.45595,-9.60924 -4.36784,-10.1916329 -0.58238,0.29119 -20.28619,6.7944179 -4.07665,4.367845 -4.56197,8.73568 0.19413,1.94126 -6.01791,9.12393 3.68839,1.26182 1.0677,6.89148 -4.27078,5.62967 -12.81233,7.76504 -2.42658,-0.97063 -9.51218,1.35889 -8.83275,5.33847 0.48532,2.81483 3.10602,2.71777 -1.74714,8.54155 -6.98854,8.1533 -0.0971,0.0971 z"
     style="fill:#f9f9f9;stroke-width:0.970631" />
  <rect
     style="fill:none;stroke-width:0;stroke-linecap:round;stroke-linejoin:bevel"
     id="rect1"
     width="149.58029"
     height="99.514153"
     x="-1.2278373e-05"
     y="4.1877698e-07"
     rx="9.3818998"
     ry="3.708602"
     inkscape:export-filename="NY.svg"
     inkscape:export-xdpi="96"
     inkscape:export-ydpi="96" />
</svg>
